<svg id="visual" viewBox="0 0 1000 200" width="1000" height="200" xmlns="http://www.w3.org/2000/svg" xmlns:xlink="http://www.w3.org/1999/xlink" version="1.1"><path d="M0 75L16.7 71.2C33.3 67.3 66.7 59.7 100 63.8C133.3 68 166.7 84 200 83C233.3 82 266.7 64 300 53.7C333.3 43.3 366.7 40.7 400 49.2C433.3 57.7 466.7 77.3 500 84.8C533.3 92.3 566.7 87.7 600 84.7C633.3 81.7 666.7 80.3 700 73.7C733.3 67 766.7 55 800 53.7C833.3 52.3 866.7 61.7 900 70.5C933.3 79.3 966.7 87.7 983.3 91.8L1000 96L1000 201L983.3 201C966.7 201 933.3 201 900 201C866.7 201 833.3 201 800 201C766.7 201 733.3 201 700 201C666.7 201 633.3 201 600 201C566.7 201 533.3 201 500 201C466.7 201 433.3 201 400 201C366.7 201 333.3 201 300 201C266.7 201 233.3 201 200 201C166.7 201 133.3 201 100 201C66.7 201 33.3 201 16.7 201L0 201Z" fill="#19b8e1"></path><path d="M0 101L16.7 99C33.3 97 66.7 93 100 87.5C133.3 82 166.7 75 200 71.8C233.3 68.7 266.7 69.3 300 71.5C333.3 73.7 366.7 77.3 400 80C433.3 82.7 466.7 84.3 500 81.8C533.3 79.3 566.7 72.7 600 68.8C633.3 65 666.7 64 700 65.5C733.3 67 766.7 71 800 74.7C833.3 78.3 866.7 81.7 900 79C933.3 76.3 966.7 67.7 983.3 63.3L1000 59L1000 201L983.3 201C966.7 201 933.3 201 900 201C866.7 201 833.3 201 800 201C766.7 201 733.3 201 700 201C666.7 201 633.3 201 600 201C566.7 201 533.3 201 500 201C466.7 201 433.3 201 400 201C366.7 201 333.3 201 300 201C266.7 201 233.3 201 200 201C166.7 201 133.3 201 100 201C66.7 201 33.3 201 16.7 201L0 201Z" fill="#008cc0"></path><path d="M0 87L16.7 92.5C33.3 98 66.7 109 100 114.7C133.3 120.3 166.7 120.7 200 115.8C233.3 111 266.7 101 300 98C333.3 95 366.7 99 400 103.2C433.3 107.3 466.7 111.7 500 117.3C533.3 123 566.7 130 600 133C633.3 136 666.7 135 700 126.5C733.3 118 766.7 102 800 96.7C833.3 91.3 866.7 96.7 900 104.2C933.3 111.7 966.7 121.3 983.3 126.2L1000 131L1000 201L983.3 201C966.7 201 933.3 201 900 201C866.7 201 833.3 201 800 201C766.7 201 733.3 201 700 201C666.7 201 633.3 201 600 201C566.7 201 533.3 201 500 201C466.7 201 433.3 201 400 201C366.7 201 333.3 201 300 201C266.7 201 233.3 201 200 201C166.7 201 133.3 201 100 201C66.7 201 33.3 201 16.7 201L0 201Z" fill="#00629a"></path><path d="M0 158L16.7 156.5C33.3 155 66.7 152 100 145.3C133.3 138.7 166.7 128.3 200 130.8C233.3 133.3 266.7 148.7 300 150.5C333.3 152.3 366.7 140.7 400 139.8C433.3 139 466.7 149 500 152C533.3 155 566.7 151 600 149C633.3 147 666.7 147 700 149C733.3 151 766.7 155 800 150.5C833.3 146 866.7 133 900 131.3C933.3 129.7 966.7 139.3 983.3 144.2L1000 149L1000 201L983.3 201C966.7 201 933.3 201 900 201C866.7 201 833.3 201 800 201C766.7 201 733.3 201 700 201C666.7 201 633.3 201 600 201C566.7 201 533.3 201 500 201C466.7 201 433.3 201 400 201C366.7 201 333.3 201 300 201C266.7 201 233.3 201 200 201C166.7 201 133.3 201 100 201C66.7 201 33.3 201 16.7 201L0 201Z" fill="#103a71"></path><path d="M0 165L16.7 162C33.3 159 66.7 153 100 154.3C133.3 155.7 166.7 164.3 200 165.7C233.3 167 266.7 161 300 162.7C333.3 164.3 366.7 173.7 400 172.5C433.3 171.3 466.7 159.7 500 156.3C533.3 153 566.7 158 600 160.5C633.3 163 666.7 163 700 161C733.3 159 766.7 155 800 154C833.3 153 866.7 155 900 157.2C933.3 159.3 966.7 161.7 983.3 162.8L1000 164L1000 201L983.3 201C966.7 201 933.3 201 900 201C866.7 201 833.3 201 800 201C766.7 201 733.3 201 700 201C666.7 201 633.3 201 600 201C566.7 201 533.3 201 500 201C466.7 201 433.3 201 400 201C366.7 201 333.3 201 300 201C266.7 201 233.3 201 200 201C166.7 201 133.3 201 100 201C66.7 201 33.3 201 16.7 201L0 201Z" fill="#121446"></path></svg>