<svg id="visual" viewBox="0 0 1000 200" width="1000" height="200" xmlns="http://www.w3.org/2000/svg" xmlns:xlink="http://www.w3.org/1999/xlink" version="1.1"><path d="M0 43L16.7 46.7C33.3 50.3 66.7 57.7 100 59.7C133.3 61.7 166.7 58.3 200 56C233.3 53.7 266.7 52.3 300 55.5C333.3 58.7 366.7 66.3 400 72C433.3 77.7 466.7 81.3 500 83.7C533.3 86 566.7 87 600 86C633.3 85 666.7 82 700 74C733.3 66 766.7 53 800 45.2C833.3 37.3 866.7 34.7 900 40.7C933.3 46.7 966.7 61.3 983.3 68.7L1000 76L1000 201L983.3 201C966.7 201 933.3 201 900 201C866.7 201 833.3 201 800 201C766.7 201 733.3 201 700 201C666.7 201 633.3 201 600 201C566.7 201 533.3 201 500 201C466.7 201 433.3 201 400 201C366.7 201 333.3 201 300 201C266.7 201 233.3 201 200 201C166.7 201 133.3 201 100 201C66.7 201 33.3 201 16.7 201L0 201Z" fill="#19b8e1"></path><path d="M0 117L16.7 113.2C33.3 109.3 66.7 101.7 100 102.2C133.3 102.7 166.7 111.3 200 111.8C233.3 112.3 266.7 104.7 300 94.3C333.3 84 366.7 71 400 66.3C433.3 61.7 466.7 65.3 500 76.5C533.3 87.7 566.7 106.3 600 107.2C633.3 108 666.7 91 700 85.8C733.3 80.7 766.7 87.3 800 92.3C833.3 97.3 866.7 100.7 900 101.2C933.3 101.7 966.7 99.3 983.3 98.2L1000 97L1000 201L983.3 201C966.7 201 933.3 201 900 201C866.7 201 833.3 201 800 201C766.7 201 733.3 201 700 201C666.7 201 633.3 201 600 201C566.7 201 533.3 201 500 201C466.7 201 433.3 201 400 201C366.7 201 333.3 201 300 201C266.7 201 233.3 201 200 201C166.7 201 133.3 201 100 201C66.7 201 33.3 201 16.7 201L0 201Z" fill="#008cc0"></path><path d="M0 133L16.7 134.5C33.3 136 66.7 139 100 131.3C133.3 123.7 166.7 105.3 200 99.7C233.3 94 266.7 101 300 104.5C333.3 108 366.7 108 400 111.8C433.3 115.7 466.7 123.3 500 119.8C533.3 116.3 566.7 101.7 600 101.7C633.3 101.7 666.7 116.3 700 121C733.3 125.7 766.7 120.3 800 120.7C833.3 121 866.7 127 900 130.8C933.3 134.7 966.7 136.3 983.3 137.2L1000 138L1000 201L983.3 201C966.7 201 933.3 201 900 201C866.7 201 833.3 201 800 201C766.7 201 733.3 201 700 201C666.7 201 633.3 201 600 201C566.7 201 533.3 201 500 201C466.7 201 433.3 201 400 201C366.7 201 333.3 201 300 201C266.7 201 233.3 201 200 201C166.7 201 133.3 201 100 201C66.7 201 33.3 201 16.7 201L0 201Z" fill="#00629a"></path><path d="M0 127L16.7 129.5C33.3 132 66.7 137 100 140.5C133.3 144 166.7 146 200 147C233.3 148 266.7 148 300 146.2C333.3 144.3 366.7 140.7 400 139.5C433.3 138.3 466.7 139.7 500 143.2C533.3 146.7 566.7 152.3 600 154.7C633.3 157 666.7 156 700 152.3C733.3 148.7 766.7 142.3 800 140.7C833.3 139 866.7 142 900 139.2C933.3 136.3 966.7 127.7 983.3 123.3L1000 119L1000 201L983.3 201C966.7 201 933.3 201 900 201C866.7 201 833.3 201 800 201C766.7 201 733.3 201 700 201C666.7 201 633.3 201 600 201C566.7 201 533.3 201 500 201C466.7 201 433.3 201 400 201C366.7 201 333.3 201 300 201C266.7 201 233.3 201 200 201C166.7 201 133.3 201 100 201C66.7 201 33.3 201 16.7 201L0 201Z" fill="#103a71"></path><path d="M0 178L16.7 172.8C33.3 167.7 66.7 157.3 100 152C133.3 146.7 166.7 146.3 200 151.5C233.3 156.7 266.7 167.3 300 170.3C333.3 173.3 366.7 168.7 400 163.8C433.3 159 466.7 154 500 152C533.3 150 566.7 151 600 151.7C633.3 152.3 666.7 152.7 700 152.5C733.3 152.3 766.7 151.7 800 150.5C833.3 149.3 866.7 147.7 900 151C933.3 154.3 966.7 162.7 983.3 166.8L1000 171L1000 201L983.3 201C966.7 201 933.3 201 900 201C866.7 201 833.3 201 800 201C766.7 201 733.3 201 700 201C666.7 201 633.3 201 600 201C566.7 201 533.3 201 500 201C466.7 201 433.3 201 400 201C366.7 201 333.3 201 300 201C266.7 201 233.3 201 200 201C166.7 201 133.3 201 100 201C66.7 201 33.3 201 16.7 201L0 201Z" fill="#121446"></path></svg>