<svg width="883" height="365" viewBox="0 0 883 365" fill="none" xmlns="http://www.w3.org/2000/svg">
<path d="M165.259 0.855469L165.259 365.001" stroke="white" stroke-opacity="0.15"/>
<path d="M373.753 227.605L373.753 365.001" stroke="white" stroke-opacity="0.15"/>
<path d="M492.894 230.488L492.894 365.001" stroke="white" stroke-opacity="0.15"/>
<path d="M518.835 230.488L518.835 272.283" stroke="white" stroke-opacity="0.15"/>
<path d="M706.192 0.855469L706.192 365.001" stroke="white" stroke-opacity="0.15"/>
<path d="M118.18 351.547L867.128 351.547" stroke="white" stroke-opacity="0.15"/>
<path d="M80.707 21.0312L882.499 21.0312" stroke="white" stroke-opacity="0.15"/>
<path d="M146.043 95.9766L741.742 95.9766" stroke="white" stroke-opacity="0.15"/>
<path d="M0 215.113L784.017 215.113" stroke="white" stroke-opacity="0.15"/>
<path d="M480.883 243.938H553.424" stroke="white" stroke-opacity="0.15"/>
<path d="M480.883 263.156H534.208" stroke="white" stroke-opacity="0.15"/>
<line x1="166.093" y1="201.646" x2="171.858" y2="207.411" stroke="white" stroke-opacity="0.1"/>
<path d="M166.079 207.43L171.844 201.665" stroke="white" stroke-opacity="0.1"/>
<line x1="162.25" y1="348.65" x2="168.015" y2="354.415" stroke="white" stroke-opacity="0.1"/>
<path d="M162.236 354.434L168.001 348.669" stroke="white" stroke-opacity="0.1"/>
<line x1="371.225" y1="348.65" x2="376.989" y2="354.415" stroke="white" stroke-opacity="0.1"/>
<path d="M371.211 354.434L376.976 348.669" stroke="white" stroke-opacity="0.1"/>
<line x1="489.403" y1="348.65" x2="495.168" y2="354.415" stroke="white" stroke-opacity="0.1"/>
<path d="M489.39 354.434L495.154 348.669" stroke="white" stroke-opacity="0.1"/>
<line x1="516.306" y1="260.256" x2="522.071" y2="266.021" stroke="white" stroke-opacity="0.1"/>
<path d="M516.292 266.039L522.057 260.274" stroke="white" stroke-opacity="0.1"/>
<line x1="490.365" y1="241.041" x2="496.13" y2="246.806" stroke="white" stroke-opacity="0.1"/>
<path d="M490.351 246.824L496.116 241.059" stroke="white" stroke-opacity="0.1"/>
<line x1="162.25" y1="212.217" x2="168.015" y2="217.982" stroke="white" stroke-opacity="0.1"/>
<path d="M162.236 218L168.001 212.235" stroke="white" stroke-opacity="0.1"/>
<line x1="162.25" y1="93.0761" x2="168.015" y2="98.841" stroke="white" stroke-opacity="0.1"/>
<path d="M162.236 98.8594L168.001 93.0945" stroke="white" stroke-opacity="0.1"/>
<line x1="162.25" y1="19.0957" x2="168.015" y2="24.8605" stroke="white" stroke-opacity="0.1"/>
<path d="M162.236 24.8789L168.001 19.1141" stroke="white" stroke-opacity="0.1"/>
<line x1="703.664" y1="19.0957" x2="709.428" y2="24.8605" stroke="white" stroke-opacity="0.1"/>
<path d="M703.65 24.8789L709.415 19.1141" stroke="white" stroke-opacity="0.1"/>
<line x1="703.663" y1="93.0761" x2="709.428" y2="98.841" stroke="white" stroke-opacity="0.1"/>
<path d="M703.649 98.8594L709.414 93.0945" stroke="white" stroke-opacity="0.1"/>
<line x1="703.664" y1="212.217" x2="709.428" y2="217.982" stroke="white" stroke-opacity="0.1"/>
<path d="M703.65 218L709.415 212.235" stroke="white" stroke-opacity="0.1"/>
<line y1="-0.5" x2="8.15271" y2="-0.5" transform="matrix(0.707107 -0.707107 -0.707107 -0.707107 703.31 354.434)" stroke="white" stroke-opacity="0.1"/>
<path d="M703.65 349.004L709.415 354.769" stroke="white" stroke-opacity="0.1"/>
<path d="M433.111 351.55C431.343 351.55 429.574 351.068 428.007 350.184L411.731 340.544C409.319 339.179 410.485 338.697 411.288 338.415C414.544 337.291 415.187 337.01 418.643 335.082C419.005 334.881 419.487 334.961 419.849 335.162L432.347 342.593C432.789 342.834 433.432 342.834 433.874 342.593L482.623 314.476C483.065 314.235 483.387 313.713 483.387 313.151V256.918C483.387 256.356 483.105 255.874 482.623 255.593L433.874 227.477C433.432 227.195 432.83 227.195 432.387 227.477L383.639 255.593C383.157 255.874 382.875 256.396 382.875 256.918V313.151C382.875 313.673 383.197 314.195 383.639 314.436L396.981 322.148C404.215 325.763 408.676 321.506 408.676 317.208V261.698C408.676 260.895 409.319 260.292 410.083 260.292H416.272C417.035 260.292 417.678 260.895 417.678 261.698V317.208C417.678 326.888 412.414 332.431 403.251 332.431C400.438 332.431 398.227 332.431 392.038 329.378L379.258 322.028C376.083 320.22 374.154 316.806 374.154 313.151V256.918C374.154 253.263 376.124 249.849 379.258 248.042L428.007 219.885C431.101 218.158 435.201 218.158 438.255 219.885L487.004 248.042C490.178 249.849 492.148 253.263 492.148 256.918V313.151C492.148 316.806 490.178 320.22 487.004 322.028L438.255 350.184C436.688 351.068 434.919 351.55 433.111 351.55Z" fill="white"/>
<path d="M448.181 312.788C426.841 312.788 422.38 302.987 422.38 294.794C422.38 294.03 423.023 293.388 423.787 293.388H430.097C430.82 293.388 431.383 293.91 431.503 294.593C432.468 301.019 435.281 304.233 448.181 304.233C458.47 304.233 462.81 301.903 462.81 296.481C462.81 293.348 461.564 291.018 445.609 289.451C432.267 288.126 424.028 285.194 424.028 274.51C424.028 264.669 432.307 258.805 446.212 258.805C461.845 258.805 469.562 264.227 470.526 275.835C470.526 276.237 470.406 276.638 470.164 276.92C469.883 277.201 469.521 277.361 469.12 277.361H462.77C462.127 277.361 461.524 276.879 461.403 276.277C459.876 269.529 456.179 267.36 446.172 267.36C434.959 267.36 433.673 271.256 433.673 274.188C433.673 277.723 435.2 278.767 450.352 280.776C465.342 282.744 472.455 285.555 472.455 296.079C472.455 306.602 463.614 312.788 448.141 312.788" fill="white"/>
<path d="M518.471 253.786C518.471 258.967 514.251 263.184 509.067 263.184C503.882 263.184 499.663 259.007 499.663 253.786C499.663 248.564 504.043 244.387 509.067 244.387C514.09 244.387 518.471 248.444 518.471 253.786ZM501.19 253.786C501.19 258.164 504.726 261.698 509.067 261.698C513.407 261.698 516.984 258.083 516.984 253.786C516.984 249.488 513.407 245.953 509.067 245.953C504.726 245.953 501.19 249.367 501.19 253.786ZM505.53 248.524H509.147C510.393 248.524 512.844 248.524 512.844 251.295C512.844 253.223 511.599 253.625 510.835 253.866C512.282 253.946 512.362 254.91 512.563 256.236C512.684 257.079 512.804 258.525 513.126 259.007H510.875C510.835 258.525 510.473 255.834 510.473 255.673C510.313 255.071 510.112 254.79 509.388 254.79H507.54V259.007H505.49V248.484L505.53 248.524ZM507.54 253.143H509.187C510.513 253.143 510.795 252.179 510.795 251.657C510.795 250.211 509.79 250.211 509.268 250.211H507.58V253.143H507.54Z" fill="white"/>
<path fill-rule="evenodd" clip-rule="evenodd" d="M282.122 131.477C282.122 129.228 280.957 127.179 278.988 126.055L227.305 96.3318C226.421 95.8096 225.457 95.5686 224.452 95.4883H223.929C222.925 95.5284 221.96 95.8096 221.076 96.3318L169.353 126.055C167.424 127.179 166.219 129.228 166.219 131.477L166.339 211.528C166.339 212.653 166.902 213.697 167.907 214.219C168.871 214.782 170.037 214.782 171.001 214.219L201.705 196.627C203.634 195.462 204.84 193.453 204.84 191.204V153.81C204.84 151.56 206.005 149.512 207.975 148.387L221.076 140.836C222.041 140.274 223.126 139.992 224.211 139.992C225.296 139.992 226.381 140.274 227.305 140.836L240.367 148.387C242.296 149.512 243.501 151.56 243.501 153.81V191.204C243.501 193.413 244.707 195.462 246.636 196.627L277.34 214.219C278.304 214.782 279.51 214.782 280.475 214.219C281.439 213.657 282.042 212.653 282.042 211.528L282.163 131.477H282.122Z" fill="white"/>
<path fill-rule="evenodd" clip-rule="evenodd" d="M530.849 21.4229C529.884 20.9007 528.719 20.9007 527.754 21.4229C526.79 21.9852 526.227 23.0295 526.227 24.114V103.442C526.227 104.205 525.825 104.928 525.142 105.33C524.459 105.732 523.615 105.732 522.972 105.33L510.031 97.859C508.102 96.7344 505.731 96.7344 503.802 97.859L452.08 127.702C450.15 128.827 448.945 130.876 448.945 133.125V192.812C448.945 195.021 450.15 197.11 452.08 198.234L503.802 228.078C505.731 229.202 508.102 229.202 510.031 228.078L561.754 198.234C563.683 197.11 564.889 195.061 564.889 192.812V44.0364C564.889 41.7871 563.683 39.6985 561.674 38.5738L530.849 21.4229ZM526.067 173.211C526.067 173.773 525.785 174.295 525.303 174.576L507.54 184.819C507.057 185.1 506.455 185.1 505.972 184.819L488.209 174.576C487.727 174.295 487.405 173.773 487.405 173.211V152.726C487.405 152.164 487.687 151.642 488.169 151.36L505.932 141.118C506.414 140.837 507.017 140.837 507.499 141.118L525.263 151.36C525.745 151.642 526.026 152.164 526.026 152.726V173.211H526.067Z" fill="white"/>
<path fill-rule="evenodd" clip-rule="evenodd" d="M703.097 152.164C705.026 151.039 706.192 148.991 706.192 146.782V132.322C706.192 130.113 705.026 128.024 703.097 126.94L651.696 97.1365C649.767 96.0118 647.356 96.0118 645.426 97.1365L593.744 126.98C591.815 128.105 590.609 130.153 590.609 132.402V192.049C590.609 194.298 591.815 196.347 593.784 197.471L645.145 226.753C647.034 227.837 649.365 227.837 651.254 226.753L682.32 209.481C683.324 208.919 683.927 207.915 683.927 206.79C683.927 205.665 683.324 204.621 682.36 204.059L630.316 174.215C629.351 173.653 628.748 172.609 628.748 171.524V152.847C628.748 151.722 629.351 150.678 630.316 150.156L646.512 140.837C647.476 140.275 648.682 140.275 649.646 140.837L665.842 150.156C666.807 150.718 667.41 151.762 667.41 152.847V167.548C667.41 168.672 668.012 169.677 668.977 170.239C669.941 170.801 671.147 170.801 672.112 170.239L703.097 152.244V152.164Z" fill="white"/>
<path fill-rule="evenodd" clip-rule="evenodd" d="M647.797 149.354C648.159 149.153 648.641 149.153 649.003 149.354L658.93 155.057C659.291 155.258 659.533 155.66 659.533 156.102V167.549C659.533 167.991 659.291 168.393 658.93 168.593L649.003 174.337C648.641 174.538 648.159 174.538 647.797 174.337L637.871 168.593C637.509 168.393 637.268 167.991 637.268 167.549V156.102C637.268 155.66 637.509 155.258 637.871 155.057L647.797 149.354Z" fill="white"/>
<mask id="mask0_4706_10686" style="mask-type:luminance" maskUnits="userSpaceOnUse" x="307" y="96" width="116" height="132">
<path d="M362.058 97.699L310.777 127.301C308.848 128.426 307.683 130.434 307.683 132.644V191.889C307.683 194.098 308.848 196.146 310.777 197.271L362.058 226.873C363.987 227.958 366.358 227.958 368.247 226.873L419.527 197.271C421.456 196.146 422.622 194.098 422.622 191.889V132.684C422.622 130.475 421.416 128.426 419.527 127.301L368.247 97.699C367.282 97.1366 366.197 96.8555 365.152 96.8555C364.107 96.8555 363.022 97.1366 362.058 97.699Z" fill="white"/>
</mask>
<g mask="url(#mask0_4706_10686)">
<path d="M422.662 96.8555H307.683V227.958H422.662V96.8555Z" fill="url(#paint0_linear_4706_10686)"/>
</g>
<mask id="mask1_4706_10686" style="mask-type:luminance" maskUnits="userSpaceOnUse" x="307" y="96" width="116" height="132">
<path d="M362.098 97.699L310.777 127.301C308.848 128.426 307.683 130.434 307.683 132.684V191.889C307.683 194.098 308.848 196.146 310.777 197.271L362.098 226.873C364.027 227.958 366.398 227.958 368.287 226.873L419.567 197.271C421.496 196.146 422.662 194.098 422.662 191.889V132.644C422.662 130.434 421.456 128.386 419.567 127.301L368.287 97.699C367.322 97.1366 366.277 96.8555 365.192 96.8555C364.107 96.8555 363.062 97.1366 362.098 97.699Z" fill="white"/>
</mask>
<g mask="url(#mask1_4706_10686)">
<g opacity="0.66">
<mask id="mask2_4706_10686" style="mask-type:luminance" maskUnits="userSpaceOnUse" x="308" y="97" width="113" height="131">
<path d="M420.894 97.0547H308.889V227.675H420.894V97.0547Z" fill="white"/>
</mask>
<g mask="url(#mask2_4706_10686)">
<mask id="mask3_4706_10686" style="mask-type:luminance" maskUnits="userSpaceOnUse" x="308" y="97" width="113" height="131">
<path d="M420.894 97.0547H308.889V227.675H420.894V97.0547Z" fill="white"/>
</mask>
<g mask="url(#mask3_4706_10686)">
<path d="M419.327 127.3L368.247 97.6973C367.725 97.4162 367.202 97.1752 366.639 97.0547L308.929 195.743C309.411 196.345 310.014 196.827 310.657 197.229L362.018 226.831C363.545 227.715 365.313 227.876 366.961 227.354L420.894 128.665C420.452 128.103 419.97 127.661 419.327 127.3Z" fill="#6C6D70"/>
</g>
</g>
</g>
</g>
<mask id="mask4_4706_10686" style="mask-type:luminance" maskUnits="userSpaceOnUse" x="311" y="96" width="112" height="132">
<path d="M364.79 96.8956C363.865 96.9358 362.901 97.217 362.097 97.699L311.299 127.02L366.478 227.516C367.04 227.395 367.603 227.154 368.166 226.873L419.326 197.271C421.255 196.146 422.179 194.098 422.179 191.889V191.648L366.799 97.0965C366.237 96.9358 365.674 96.8555 365.111 96.8555C364.991 96.8555 364.91 96.8555 364.79 96.8555" fill="white"/>
</mask>
<g mask="url(#mask4_4706_10686)">
<path d="M422.179 96.8555H311.259V227.476H422.179V96.8555Z" fill="url(#paint1_linear_4706_10686)"/>
</g>
<defs>
<linearGradient id="paint0_linear_4706_10686" x1="315.309" y1="164.524" x2="430.289" y2="164.524" gradientUnits="userSpaceOnUse">
<stop stop-color="white"/>
<stop offset="0.1" stop-color="#F5F5F5"/>
<stop offset="0.49" stop-color="#CFD0D1"/>
<stop offset="0.8" stop-color="#B8B9BB"/>
<stop offset="1" stop-color="#B0B1B3"/>
</linearGradient>
<linearGradient id="paint1_linear_4706_10686" x1="292.211" y1="159.335" x2="410.848" y2="159.335" gradientUnits="userSpaceOnUse">
<stop stop-color="#B0B1B3"/>
<stop offset="0.2" stop-color="#B8B9BB"/>
<stop offset="0.51" stop-color="#CFD0D1"/>
<stop offset="0.9" stop-color="#F5F5F5"/>
<stop offset="0.99" stop-color="white"/>
<stop offset="1" stop-color="white"/>
</linearGradient>
</defs>
</svg>
