<svg id="visual" viewBox="0 0 800 200" width="800" height="200" xmlns="http://www.w3.org/2000/svg" xmlns:xlink="http://www.w3.org/1999/xlink" version="1.1"><path d="M0 95L89 109L178 81L267 105L356 97L444 117L533 100L622 92L711 116L800 89L800 0L711 0L622 0L533 0L444 0L356 0L267 0L178 0L89 0L0 0Z" fill="#fb736b"></path><path d="M0 62L89 76L178 80L267 90L356 89L444 83L533 68L622 82L711 65L800 93L800 0L711 0L622 0L533 0L444 0L356 0L267 0L178 0L89 0L0 0Z" fill="#d94c7b"></path><path d="M0 49L89 62L178 62L267 68L356 67L444 45L533 40L622 45L711 52L800 52L800 0L711 0L622 0L533 0L444 0L356 0L267 0L178 0L89 0L0 0Z" fill="#a43588"></path><path d="M0 28L89 36L178 31L267 19L356 24L444 38L533 33L622 19L711 35L800 29L800 0L711 0L622 0L533 0L444 0L356 0L267 0L178 0L89 0L0 0Z" fill="#5b308c"></path></svg>